solid OpenSCAD_Model
  facet normal 0 1 -0
    outer loop
      vertex 50 29 -32
      vertex -50 29 -12
      vertex 50 29 -12
    endloop
  endfacet
  facet normal 0 1 0
    outer loop
      vertex -50 29 -12
      vertex 50 29 -32
      vertex -50 29 -32
    endloop
  endfacet
  facet normal -0 0 1
    outer loop
      vertex -50 29 -12
      vertex 50 -29 -12
      vertex 50 29 -12
    endloop
  endfacet
  facet normal 0 0 1
    outer loop
      vertex 50 -29 -12
      vertex -50 29 -12
      vertex -50 -29 -12
    endloop
  endfacet
  facet normal 0 0 -1
    outer loop
      vertex -50 -29 -32
      vertex 50 29 -32
      vertex 50 -29 -32
    endloop
  endfacet
  facet normal -0 0 -1
    outer loop
      vertex 50 29 -32
      vertex -50 -29 -32
      vertex -50 29 -32
    endloop
  endfacet
  facet normal 0 -1 0
    outer loop
      vertex -50 -29 -32
      vertex 50 -29 -12
      vertex -50 -29 -12
    endloop
  endfacet
  facet normal 0 -1 -0
    outer loop
      vertex 50 -29 -12
      vertex -50 -29 -32
      vertex 50 -29 -32
    endloop
  endfacet
  facet normal -1 0 0
    outer loop
      vertex -50 29 -32
      vertex -50 4 -22
      vertex -50 29 -12
    endloop
  endfacet
  facet normal -1 0 0
    outer loop
      vertex -50 29 -32
      vertex -50 3.9839 -22.3586
      vertex -50 4 -22
    endloop
  endfacet
  facet normal -1 0 0
    outer loop
      vertex -50 29 -32
      vertex -50 3.93572 -22.7142
      vertex -50 3.9839 -22.3586
    endloop
  endfacet
  facet normal -1 0 0
    outer loop
      vertex -50 29 -32
      vertex -50 3.85585 -23.0641
      vertex -50 3.93572 -22.7142
    endloop
  endfacet
  facet normal -1 0 0
    outer loop
      vertex -50 29 -32
      vertex -50 3.74494 -23.4055
      vertex -50 3.85585 -23.0641
    endloop
  endfacet
  facet normal -1 0 0
    outer loop
      vertex -50 29 -32
      vertex -50 3.60388 -23.7355
      vertex -50 3.74494 -23.4055
    endloop
  endfacet
  facet normal -1 0 0
    outer loop
      vertex -50 29 -32
      vertex -50 3.43379 -24.0516
      vertex -50 3.60388 -23.7355
    endloop
  endfacet
  facet normal -1 0 0
    outer loop
      vertex -50 29 -32
      vertex -50 3.23607 -24.3511
      vertex -50 3.43379 -24.0516
    endloop
  endfacet
  facet normal -1 0 0
    outer loop
      vertex -50 29 -32
      vertex -50 3.01229 -24.6318
      vertex -50 3.23607 -24.3511
    endloop
  endfacet
  facet normal -1 0 0
    outer loop
      vertex -50 29 -32
      vertex -50 2.76425 -24.8912
      vertex -50 3.01229 -24.6318
    endloop
  endfacet
  facet normal -1 0 0
    outer loop
      vertex -50 29 -32
      vertex -50 2.49396 -25.1273
      vertex -50 2.76425 -24.8912
    endloop
  endfacet
  facet normal -1 0 0
    outer loop
      vertex -50 29 -32
      vertex -50 2.20359 -25.3383
      vertex -50 2.49396 -25.1273
    endloop
  endfacet
  facet normal -1 0 0
    outer loop
      vertex -50 29 -32
      vertex -50 1.89547 -25.5224
      vertex -50 2.20359 -25.3383
    endloop
  endfacet
  facet normal -1 0 0
    outer loop
      vertex -50 29 -32
      vertex -50 1.5721 -25.6781
      vertex -50 1.89547 -25.5224
    endloop
  endfacet
  facet normal -1 0 0
    outer loop
      vertex -50 29 -32
      vertex -50 1.23607 -25.8042
      vertex -50 1.5721 -25.6781
    endloop
  endfacet
  facet normal -1 0 0
    outer loop
      vertex -50 29 -32
      vertex -50 0.890083 -25.8997
      vertex -50 1.23607 -25.8042
    endloop
  endfacet
  facet normal -1 0 0
    outer loop
      vertex -50 29 -32
      vertex -50 0.536933 -25.9638
      vertex -50 0.890083 -25.8997
    endloop
  endfacet
  facet normal -1 0 0
    outer loop
      vertex -50 29 -32
      vertex -50 0.179459 -25.996
      vertex -50 0.536933 -25.9638
    endloop
  endfacet
  facet normal -1 0 0
    outer loop
      vertex -50 29 -32
      vertex -50 -0.17946 -25.996
      vertex -50 0.179459 -25.996
    endloop
  endfacet
  facet normal -1 0 0
    outer loop
      vertex -50 -29 -32
      vertex -50 -0.17946 -25.996
      vertex -50 29 -32
    endloop
  endfacet
  facet normal -1 -0 0
    outer loop
      vertex -50 -0.17946 -25.996
      vertex -50 -29 -32
      vertex -50 -0.536934 -25.9638
    endloop
  endfacet
  facet normal -1 -0 0
    outer loop
      vertex -50 -3.9839 -22.3586
      vertex -50 -29 -32
      vertex -50 -4 -22
    endloop
  endfacet
  facet normal -1 -0 0
    outer loop
      vertex -50 -3.93572 -22.7142
      vertex -50 -29 -32
      vertex -50 -3.9839 -22.3586
    endloop
  endfacet
  facet normal -1 -0 0
    outer loop
      vertex -50 -3.85585 -23.0641
      vertex -50 -29 -32
      vertex -50 -3.93572 -22.7142
    endloop
  endfacet
  facet normal -1 -0 0
    outer loop
      vertex -50 -3.74494 -23.4055
      vertex -50 -29 -32
      vertex -50 -3.85585 -23.0641
    endloop
  endfacet
  facet normal -1 -0 0
    outer loop
      vertex -50 -3.60388 -23.7355
      vertex -50 -29 -32
      vertex -50 -3.74494 -23.4055
    endloop
  endfacet
  facet normal -1 -0 0
    outer loop
      vertex -50 -3.4338 -24.0516
      vertex -50 -29 -32
      vertex -50 -3.60388 -23.7355
    endloop
  endfacet
  facet normal -1 -0 0
    outer loop
      vertex -50 -3.23607 -24.3511
      vertex -50 -29 -32
      vertex -50 -3.4338 -24.0516
    endloop
  endfacet
  facet normal -1 -0 0
    outer loop
      vertex -50 -3.01229 -24.6318
      vertex -50 -29 -32
      vertex -50 -3.23607 -24.3511
    endloop
  endfacet
  facet normal -1 -0 0
    outer loop
      vertex -50 -2.76425 -24.8912
      vertex -50 -29 -32
      vertex -50 -3.01229 -24.6318
    endloop
  endfacet
  facet normal -1 -0 0
    outer loop
      vertex -50 -2.49396 -25.1273
      vertex -50 -29 -32
      vertex -50 -2.76425 -24.8912
    endloop
  endfacet
  facet normal -1 -0 0
    outer loop
      vertex -50 -2.20359 -25.3383
      vertex -50 -29 -32
      vertex -50 -2.49396 -25.1273
    endloop
  endfacet
  facet normal -1 -0 0
    outer loop
      vertex -50 -1.89548 -25.5224
      vertex -50 -29 -32
      vertex -50 -2.20359 -25.3383
    endloop
  endfacet
  facet normal -1 -0 0
    outer loop
      vertex -50 -1.5721 -25.6781
      vertex -50 -29 -32
      vertex -50 -1.89548 -25.5224
    endloop
  endfacet
  facet normal -1 -0 0
    outer loop
      vertex -50 -1.23607 -25.8042
      vertex -50 -29 -32
      vertex -50 -1.5721 -25.6781
    endloop
  endfacet
  facet normal -1 -0 0
    outer loop
      vertex -50 -0.890084 -25.8997
      vertex -50 -29 -32
      vertex -50 -1.23607 -25.8042
    endloop
  endfacet
  facet normal -1 -0 0
    outer loop
      vertex -50 -0.536934 -25.9638
      vertex -50 -29 -32
      vertex -50 -0.890084 -25.8997
    endloop
  endfacet
  facet normal -1 0 0
    outer loop
      vertex -50 3.9839 -21.6414
      vertex -50 29 -12
      vertex -50 4 -22
    endloop
  endfacet
  facet normal -1 0 0
    outer loop
      vertex -50 3.93572 -21.2858
      vertex -50 29 -12
      vertex -50 3.9839 -21.6414
    endloop
  endfacet
  facet normal -1 0 0
    outer loop
      vertex -50 3.85585 -20.9359
      vertex -50 29 -12
      vertex -50 3.93572 -21.2858
    endloop
  endfacet
  facet normal -1 0 0
    outer loop
      vertex -50 3.74494 -20.5945
      vertex -50 29 -12
      vertex -50 3.85585 -20.9359
    endloop
  endfacet
  facet normal -1 0 0
    outer loop
      vertex -50 3.60388 -20.2645
      vertex -50 29 -12
      vertex -50 3.74494 -20.5945
    endloop
  endfacet
  facet normal -1 0 0
    outer loop
      vertex -50 3.43379 -19.9484
      vertex -50 29 -12
      vertex -50 3.60388 -20.2645
    endloop
  endfacet
  facet normal -1 0 0
    outer loop
      vertex -50 3.23607 -19.6489
      vertex -50 29 -12
      vertex -50 3.43379 -19.9484
    endloop
  endfacet
  facet normal -1 0 0
    outer loop
      vertex -50 3.01229 -19.3682
      vertex -50 29 -12
      vertex -50 3.23607 -19.6489
    endloop
  endfacet
  facet normal -1 0 0
    outer loop
      vertex -50 2.76425 -19.1088
      vertex -50 29 -12
      vertex -50 3.01229 -19.3682
    endloop
  endfacet
  facet normal -1 0 0
    outer loop
      vertex -50 2.49396 -18.8727
      vertex -50 29 -12
      vertex -50 2.76425 -19.1088
    endloop
  endfacet
  facet normal -1 0 0
    outer loop
      vertex -50 2.20359 -18.6617
      vertex -50 29 -12
      vertex -50 2.49396 -18.8727
    endloop
  endfacet
  facet normal -1 0 0
    outer loop
      vertex -50 1.89547 -18.4776
      vertex -50 29 -12
      vertex -50 2.20359 -18.6617
    endloop
  endfacet
  facet normal -1 0 0
    outer loop
      vertex -50 1.5721 -18.3219
      vertex -50 29 -12
      vertex -50 1.89547 -18.4776
    endloop
  endfacet
  facet normal -1 0 0
    outer loop
      vertex -50 1.23607 -18.1958
      vertex -50 29 -12
      vertex -50 1.5721 -18.3219
    endloop
  endfacet
  facet normal -1 0 0
    outer loop
      vertex -50 0.890083 -18.1003
      vertex -50 29 -12
      vertex -50 1.23607 -18.1958
    endloop
  endfacet
  facet normal -1 0 0
    outer loop
      vertex -50 0.536933 -18.0362
      vertex -50 29 -12
      vertex -50 0.890083 -18.1003
    endloop
  endfacet
  facet normal -1 0 0
    outer loop
      vertex -50 0.179459 -18.004
      vertex -50 29 -12
      vertex -50 0.536933 -18.0362
    endloop
  endfacet
  facet normal -1 0 0
    outer loop
      vertex -50 -0.17946 -18.004
      vertex -50 29 -12
      vertex -50 0.179459 -18.004
    endloop
  endfacet
  facet normal -1 0 0
    outer loop
      vertex -50 -29 -12
      vertex -50 -0.17946 -18.004
      vertex -50 -0.536934 -18.0362
    endloop
  endfacet
  facet normal -1 0 0
    outer loop
      vertex -50 -29 -12
      vertex -50 -0.536934 -18.0362
      vertex -50 -0.890084 -18.1003
    endloop
  endfacet
  facet normal -1 0 0
    outer loop
      vertex -50 -29 -12
      vertex -50 -4 -22
      vertex -50 -29 -32
    endloop
  endfacet
  facet normal -1 0 0
    outer loop
      vertex -50 -4 -22
      vertex -50 -29 -12
      vertex -50 -3.9839 -21.6414
    endloop
  endfacet
  facet normal -1 0 0
    outer loop
      vertex -50 -3.9839 -21.6414
      vertex -50 -29 -12
      vertex -50 -3.93572 -21.2858
    endloop
  endfacet
  facet normal -1 0 0
    outer loop
      vertex -50 -3.93572 -21.2858
      vertex -50 -29 -12
      vertex -50 -3.85585 -20.9359
    endloop
  endfacet
  facet normal -1 0 0
    outer loop
      vertex -50 -3.85585 -20.9359
      vertex -50 -29 -12
      vertex -50 -3.74494 -20.5945
    endloop
  endfacet
  facet normal -1 0 0
    outer loop
      vertex -50 -3.74494 -20.5945
      vertex -50 -29 -12
      vertex -50 -3.60388 -20.2645
    endloop
  endfacet
  facet normal -1 0 0
    outer loop
      vertex -50 -3.60388 -20.2645
      vertex -50 -29 -12
      vertex -50 -3.4338 -19.9484
    endloop
  endfacet
  facet normal -1 0 0
    outer loop
      vertex -50 -3.4338 -19.9484
      vertex -50 -29 -12
      vertex -50 -3.23607 -19.6489
    endloop
  endfacet
  facet normal -1 0 0
    outer loop
      vertex -50 -3.23607 -19.6489
      vertex -50 -29 -12
      vertex -50 -3.01229 -19.3682
    endloop
  endfacet
  facet normal -1 0 0
    outer loop
      vertex -50 -3.01229 -19.3682
      vertex -50 -29 -12
      vertex -50 -2.76425 -19.1088
    endloop
  endfacet
  facet normal -1 0 0
    outer loop
      vertex -50 -2.76425 -19.1088
      vertex -50 -29 -12
      vertex -50 -2.49396 -18.8727
    endloop
  endfacet
  facet normal -1 0 0
    outer loop
      vertex -50 -2.49396 -18.8727
      vertex -50 -29 -12
      vertex -50 -2.20359 -18.6617
    endloop
  endfacet
  facet normal -1 0 0
    outer loop
      vertex -50 -0.17946 -18.004
      vertex -50 -29 -12
      vertex -50 29 -12
    endloop
  endfacet
  facet normal -1 0 0
    outer loop
      vertex -50 -1.23607 -18.1958
      vertex -50 -29 -12
      vertex -50 -0.890084 -18.1003
    endloop
  endfacet
  facet normal -1 0 0
    outer loop
      vertex -50 -1.5721 -18.3219
      vertex -50 -29 -12
      vertex -50 -1.23607 -18.1958
    endloop
  endfacet
  facet normal -1 0 0
    outer loop
      vertex -50 -1.89548 -18.4776
      vertex -50 -29 -12
      vertex -50 -1.5721 -18.3219
    endloop
  endfacet
  facet normal -1 0 0
    outer loop
      vertex -50 -2.20359 -18.6617
      vertex -50 -29 -12
      vertex -50 -1.89548 -18.4776
    endloop
  endfacet
  facet normal 1 0 0
    outer loop
      vertex 50 29 -12
      vertex 50 4 -22
      vertex 50 29 -32
    endloop
  endfacet
  facet normal 1 0 0
    outer loop
      vertex 50 29 -12
      vertex 50 3.9839 -21.6414
      vertex 50 4 -22
    endloop
  endfacet
  facet normal 1 0 0
    outer loop
      vertex 50 29 -12
      vertex 50 3.93572 -21.2858
      vertex 50 3.9839 -21.6414
    endloop
  endfacet
  facet normal 1 0 0
    outer loop
      vertex 50 29 -12
      vertex 50 3.85585 -20.9359
      vertex 50 3.93572 -21.2858
    endloop
  endfacet
  facet normal 1 0 0
    outer loop
      vertex 50 29 -12
      vertex 50 3.74494 -20.5945
      vertex 50 3.85585 -20.9359
    endloop
  endfacet
  facet normal 1 0 0
    outer loop
      vertex 50 29 -12
      vertex 50 3.60388 -20.2645
      vertex 50 3.74494 -20.5945
    endloop
  endfacet
  facet normal 1 0 0
    outer loop
      vertex 50 29 -12
      vertex 50 3.43379 -19.9484
      vertex 50 3.60388 -20.2645
    endloop
  endfacet
  facet normal 1 0 0
    outer loop
      vertex 50 29 -12
      vertex 50 3.23607 -19.6489
      vertex 50 3.43379 -19.9484
    endloop
  endfacet
  facet normal 1 0 0
    outer loop
      vertex 50 29 -12
      vertex 50 3.01229 -19.3682
      vertex 50 3.23607 -19.6489
    endloop
  endfacet
  facet normal 1 0 0
    outer loop
      vertex 50 29 -12
      vertex 50 2.76425 -19.1088
      vertex 50 3.01229 -19.3682
    endloop
  endfacet
  facet normal 1 0 0
    outer loop
      vertex 50 29 -12
      vertex 50 2.49396 -18.8727
      vertex 50 2.76425 -19.1088
    endloop
  endfacet
  facet normal 1 0 0
    outer loop
      vertex 50 29 -12
      vertex 50 2.20359 -18.6617
      vertex 50 2.49396 -18.8727
    endloop
  endfacet
  facet normal 1 0 0
    outer loop
      vertex 50 29 -12
      vertex 50 1.89547 -18.4776
      vertex 50 2.20359 -18.6617
    endloop
  endfacet
  facet normal 1 0 0
    outer loop
      vertex 50 29 -12
      vertex 50 1.5721 -18.3219
      vertex 50 1.89547 -18.4776
    endloop
  endfacet
  facet normal 1 0 0
    outer loop
      vertex 50 29 -12
      vertex 50 1.23607 -18.1958
      vertex 50 1.5721 -18.3219
    endloop
  endfacet
  facet normal 1 0 0
    outer loop
      vertex 50 29 -12
      vertex 50 0.890083 -18.1003
      vertex 50 1.23607 -18.1958
    endloop
  endfacet
  facet normal 1 0 0
    outer loop
      vertex 50 29 -12
      vertex 50 0.536933 -18.0362
      vertex 50 0.890083 -18.1003
    endloop
  endfacet
  facet normal 1 0 0
    outer loop
      vertex 50 29 -12
      vertex 50 0.179459 -18.004
      vertex 50 0.536933 -18.0362
    endloop
  endfacet
  facet normal 1 0 0
    outer loop
      vertex 50 29 -12
      vertex 50 -0.17946 -18.004
      vertex 50 0.179459 -18.004
    endloop
  endfacet
  facet normal 1 -0 0
    outer loop
      vertex 50 -29 -12
      vertex 50 -0.17946 -18.004
      vertex 50 29 -12
    endloop
  endfacet
  facet normal 1 0 0
    outer loop
      vertex 50 -0.17946 -18.004
      vertex 50 -29 -12
      vertex 50 -0.536934 -18.0362
    endloop
  endfacet
  facet normal 1 0 0
    outer loop
      vertex 50 -3.9839 -21.6414
      vertex 50 -29 -12
      vertex 50 -4 -22
    endloop
  endfacet
  facet normal 1 0 0
    outer loop
      vertex 50 -3.93572 -21.2858
      vertex 50 -29 -12
      vertex 50 -3.9839 -21.6414
    endloop
  endfacet
  facet normal 1 0 0
    outer loop
      vertex 50 -3.85585 -20.9359
      vertex 50 -29 -12
      vertex 50 -3.93572 -21.2858
    endloop
  endfacet
  facet normal 1 0 0
    outer loop
      vertex 50 -3.74494 -20.5945
      vertex 50 -29 -12
      vertex 50 -3.85585 -20.9359
    endloop
  endfacet
  facet normal 1 0 0
    outer loop
      vertex 50 -3.60388 -20.2645
      vertex 50 -29 -12
      vertex 50 -3.74494 -20.5945
    endloop
  endfacet
  facet normal 1 0 0
    outer loop
      vertex 50 -3.4338 -19.9484
      vertex 50 -29 -12
      vertex 50 -3.60388 -20.2645
    endloop
  endfacet
  facet normal 1 0 0
    outer loop
      vertex 50 -3.23607 -19.6489
      vertex 50 -29 -12
      vertex 50 -3.4338 -19.9484
    endloop
  endfacet
  facet normal 1 0 0
    outer loop
      vertex 50 -3.01229 -19.3682
      vertex 50 -29 -12
      vertex 50 -3.23607 -19.6489
    endloop
  endfacet
  facet normal 1 0 0
    outer loop
      vertex 50 -2.76425 -19.1088
      vertex 50 -29 -12
      vertex 50 -3.01229 -19.3682
    endloop
  endfacet
  facet normal 1 0 0
    outer loop
      vertex 50 -2.49396 -18.8727
      vertex 50 -29 -12
      vertex 50 -2.76425 -19.1088
    endloop
  endfacet
  facet normal 1 0 0
    outer loop
      vertex 50 -2.20359 -18.6617
      vertex 50 -29 -12
      vertex 50 -2.49396 -18.8727
    endloop
  endfacet
  facet normal 1 0 0
    outer loop
      vertex 50 -1.89548 -18.4776
      vertex 50 -29 -12
      vertex 50 -2.20359 -18.6617
    endloop
  endfacet
  facet normal 1 0 0
    outer loop
      vertex 50 -1.5721 -18.3219
      vertex 50 -29 -12
      vertex 50 -1.89548 -18.4776
    endloop
  endfacet
  facet normal 1 0 0
    outer loop
      vertex 50 -1.23607 -18.1958
      vertex 50 -29 -12
      vertex 50 -1.5721 -18.3219
    endloop
  endfacet
  facet normal 1 0 0
    outer loop
      vertex 50 -0.890084 -18.1003
      vertex 50 -29 -12
      vertex 50 -1.23607 -18.1958
    endloop
  endfacet
  facet normal 1 0 0
    outer loop
      vertex 50 -0.536934 -18.0362
      vertex 50 -29 -12
      vertex 50 -0.890084 -18.1003
    endloop
  endfacet
  facet normal 1 -0 0
    outer loop
      vertex 50 3.9839 -22.3586
      vertex 50 29 -32
      vertex 50 4 -22
    endloop
  endfacet
  facet normal 1 -0 0
    outer loop
      vertex 50 3.93572 -22.7142
      vertex 50 29 -32
      vertex 50 3.9839 -22.3586
    endloop
  endfacet
  facet normal 1 -0 0
    outer loop
      vertex 50 3.85585 -23.0641
      vertex 50 29 -32
      vertex 50 3.93572 -22.7142
    endloop
  endfacet
  facet normal 1 -0 0
    outer loop
      vertex 50 3.74494 -23.4055
      vertex 50 29 -32
      vertex 50 3.85585 -23.0641
    endloop
  endfacet
  facet normal 1 -0 0
    outer loop
      vertex 50 3.60388 -23.7355
      vertex 50 29 -32
      vertex 50 3.74494 -23.4055
    endloop
  endfacet
  facet normal 1 -0 0
    outer loop
      vertex 50 3.43379 -24.0516
      vertex 50 29 -32
      vertex 50 3.60388 -23.7355
    endloop
  endfacet
  facet normal 1 -0 0
    outer loop
      vertex 50 3.23607 -24.3511
      vertex 50 29 -32
      vertex 50 3.43379 -24.0516
    endloop
  endfacet
  facet normal 1 -0 0
    outer loop
      vertex 50 3.01229 -24.6318
      vertex 50 29 -32
      vertex 50 3.23607 -24.3511
    endloop
  endfacet
  facet normal 1 -0 0
    outer loop
      vertex 50 2.76425 -24.8912
      vertex 50 29 -32
      vertex 50 3.01229 -24.6318
    endloop
  endfacet
  facet normal 1 -0 0
    outer loop
      vertex 50 2.49396 -25.1273
      vertex 50 29 -32
      vertex 50 2.76425 -24.8912
    endloop
  endfacet
  facet normal 1 -0 0
    outer loop
      vertex 50 2.20359 -25.3383
      vertex 50 29 -32
      vertex 50 2.49396 -25.1273
    endloop
  endfacet
  facet normal 1 -0 0
    outer loop
      vertex 50 1.89547 -25.5224
      vertex 50 29 -32
      vertex 50 2.20359 -25.3383
    endloop
  endfacet
  facet normal 1 -0 0
    outer loop
      vertex 50 1.5721 -25.6781
      vertex 50 29 -32
      vertex 50 1.89547 -25.5224
    endloop
  endfacet
  facet normal 1 -0 0
    outer loop
      vertex 50 1.23607 -25.8042
      vertex 50 29 -32
      vertex 50 1.5721 -25.6781
    endloop
  endfacet
  facet normal 1 -0 0
    outer loop
      vertex 50 0.890083 -25.8997
      vertex 50 29 -32
      vertex 50 1.23607 -25.8042
    endloop
  endfacet
  facet normal 1 -0 0
    outer loop
      vertex 50 0.536933 -25.9638
      vertex 50 29 -32
      vertex 50 0.890083 -25.8997
    endloop
  endfacet
  facet normal 1 -0 0
    outer loop
      vertex 50 0.179459 -25.996
      vertex 50 29 -32
      vertex 50 0.536933 -25.9638
    endloop
  endfacet
  facet normal 1 -0 0
    outer loop
      vertex 50 -0.17946 -25.996
      vertex 50 29 -32
      vertex 50 0.179459 -25.996
    endloop
  endfacet
  facet normal 1 0 0
    outer loop
      vertex 50 -29 -32
      vertex 50 -0.17946 -25.996
      vertex 50 -0.536934 -25.9638
    endloop
  endfacet
  facet normal 1 0 0
    outer loop
      vertex 50 -29 -32
      vertex 50 -0.536934 -25.9638
      vertex 50 -0.890084 -25.8997
    endloop
  endfacet
  facet normal 1 0 0
    outer loop
      vertex 50 -29 -32
      vertex 50 -4 -22
      vertex 50 -29 -12
    endloop
  endfacet
  facet normal 1 0 0
    outer loop
      vertex 50 -4 -22
      vertex 50 -29 -32
      vertex 50 -3.9839 -22.3586
    endloop
  endfacet
  facet normal 1 0 0
    outer loop
      vertex 50 -3.9839 -22.3586
      vertex 50 -29 -32
      vertex 50 -3.93572 -22.7142
    endloop
  endfacet
  facet normal 1 0 0
    outer loop
      vertex 50 -3.93572 -22.7142
      vertex 50 -29 -32
      vertex 50 -3.85585 -23.0641
    endloop
  endfacet
  facet normal 1 0 0
    outer loop
      vertex 50 -3.85585 -23.0641
      vertex 50 -29 -32
      vertex 50 -3.74494 -23.4055
    endloop
  endfacet
  facet normal 1 0 0
    outer loop
      vertex 50 -3.74494 -23.4055
      vertex 50 -29 -32
      vertex 50 -3.60388 -23.7355
    endloop
  endfacet
  facet normal 1 0 0
    outer loop
      vertex 50 -3.60388 -23.7355
      vertex 50 -29 -32
      vertex 50 -3.4338 -24.0516
    endloop
  endfacet
  facet normal 1 0 0
    outer loop
      vertex 50 -3.4338 -24.0516
      vertex 50 -29 -32
      vertex 50 -3.23607 -24.3511
    endloop
  endfacet
  facet normal 1 0 0
    outer loop
      vertex 50 -3.23607 -24.3511
      vertex 50 -29 -32
      vertex 50 -3.01229 -24.6318
    endloop
  endfacet
  facet normal 1 0 0
    outer loop
      vertex 50 -3.01229 -24.6318
      vertex 50 -29 -32
      vertex 50 -2.76425 -24.8912
    endloop
  endfacet
  facet normal 1 0 0
    outer loop
      vertex 50 -2.76425 -24.8912
      vertex 50 -29 -32
      vertex 50 -2.49396 -25.1273
    endloop
  endfacet
  facet normal 1 0 0
    outer loop
      vertex 50 -2.49396 -25.1273
      vertex 50 -29 -32
      vertex 50 -2.20359 -25.3383
    endloop
  endfacet
  facet normal 1 0 0
    outer loop
      vertex 50 -0.17946 -25.996
      vertex 50 -29 -32
      vertex 50 29 -32
    endloop
  endfacet
  facet normal 1 0 0
    outer loop
      vertex 50 -1.23607 -25.8042
      vertex 50 -29 -32
      vertex 50 -0.890084 -25.8997
    endloop
  endfacet
  facet normal 1 0 0
    outer loop
      vertex 50 -1.5721 -25.6781
      vertex 50 -29 -32
      vertex 50 -1.23607 -25.8042
    endloop
  endfacet
  facet normal 1 0 0
    outer loop
      vertex 50 -1.89548 -25.5224
      vertex 50 -29 -32
      vertex 50 -1.5721 -25.6781
    endloop
  endfacet
  facet normal 1 0 0
    outer loop
      vertex 50 -2.20359 -25.3383
      vertex 50 -29 -32
      vertex 50 -1.89548 -25.5224
    endloop
  endfacet
  facet normal 0 -0.998994 -0.0448516
    outer loop
      vertex -50 4 -22
      vertex 50 3.9839 -21.6414
      vertex -50 3.9839 -21.6414
    endloop
  endfacet
  facet normal 0 -0.998994 -0.0448516
    outer loop
      vertex 50 3.9839 -21.6414
      vertex -50 4 -22
      vertex 50 4 -22
    endloop
  endfacet
  facet normal 0 -0.974923 -0.222541
    outer loop
      vertex -50 3.93572 -21.2858
      vertex 50 3.85585 -20.9359
      vertex -50 3.85585 -20.9359
    endloop
  endfacet
  facet normal 0 -0.974923 -0.222541
    outer loop
      vertex 50 3.85585 -20.9359
      vertex -50 3.93572 -21.2858
      vertex 50 3.93572 -21.2858
    endloop
  endfacet
  facet normal 0 0.266073 -0.963953
    outer loop
      vertex -50 -1.23607 -18.1958
      vertex 50 -0.890084 -18.1003
      vertex 50 -1.23607 -18.1958
    endloop
  endfacet
  facet normal 0 0.266073 -0.963953
    outer loop
      vertex 50 -0.890084 -18.1003
      vertex -50 -1.23607 -18.1958
      vertex -50 -0.890084 -18.1003
    endloop
  endfacet
  facet normal -0 0.512926 0.858433
    outer loop
      vertex -50 -1.89548 -25.5224
      vertex 50 -2.20359 -25.3383
      vertex 50 -1.89548 -25.5224
    endloop
  endfacet
  facet normal 0 0.512926 0.858433
    outer loop
      vertex 50 -2.20359 -25.3383
      vertex -50 -1.89548 -25.5224
      vertex -50 -2.20359 -25.3383
    endloop
  endfacet
  facet normal 0 -0.781928 -0.623369
    outer loop
      vertex -50 3.23607 -19.6489
      vertex 50 3.01229 -19.3682
      vertex -50 3.01229 -19.3682
    endloop
  endfacet
  facet normal 0 -0.781928 -0.623369
    outer loop
      vertex 50 3.01229 -19.3682
      vertex -50 3.23607 -19.6489
      vertex 50 3.23607 -19.6489
    endloop
  endfacet
  facet normal 0 0.919516 -0.393051
    outer loop
      vertex 50 -3.74494 -20.5945
      vertex -50 -3.60388 -20.2645
      vertex 50 -3.60388 -20.2645
    endloop
  endfacet
  facet normal 0 0.919516 -0.393051
    outer loop
      vertex -50 -3.60388 -20.2645
      vertex 50 -3.74494 -20.5945
      vertex -50 -3.74494 -20.5945
    endloop
  endfacet
  facet normal 0 -0.433823 0.900998
    outer loop
      vertex -50 1.89547 -25.5224
      vertex 50 1.5721 -25.6781
      vertex 50 1.89547 -25.5224
    endloop
  endfacet
  facet normal 0 -0.433823 0.900998
    outer loop
      vertex 50 1.5721 -25.6781
      vertex -50 1.89547 -25.5224
      vertex -50 1.5721 -25.6781
    endloop
  endfacet
  facet normal 0 -0.35134 -0.936248
    outer loop
      vertex -50 1.23607 -18.1958
      vertex 50 1.5721 -18.3219
      vertex 50 1.23607 -18.1958
    endloop
  endfacet
  facet normal -0 -0.35134 -0.936248
    outer loop
      vertex 50 1.5721 -18.3219
      vertex -50 1.23607 -18.1958
      vertex -50 1.5721 -18.3219
    endloop
  endfacet
  facet normal 0 -0.433823 -0.900998
    outer loop
      vertex -50 1.5721 -18.3219
      vertex 50 1.89547 -18.4776
      vertex 50 1.5721 -18.3219
    endloop
  endfacet
  facet normal -0 -0.433823 -0.900998
    outer loop
      vertex 50 1.89547 -18.4776
      vertex -50 1.5721 -18.3219
      vertex -50 1.89547 -18.4776
    endloop
  endfacet
  facet normal 0 0.587847 -0.808972
    outer loop
      vertex -50 -2.49396 -18.8727
      vertex 50 -2.20359 -18.6617
      vertex 50 -2.49396 -18.8727
    endloop
  endfacet
  facet normal 0 0.587847 -0.808972
    outer loop
      vertex 50 -2.20359 -18.6617
      vertex -50 -2.49396 -18.8727
      vertex -50 -2.20359 -18.6617
    endloop
  endfacet
  facet normal 0 0.919516 0.393051
    outer loop
      vertex 50 -3.60388 -23.7355
      vertex -50 -3.74494 -23.4055
      vertex 50 -3.74494 -23.4055
    endloop
  endfacet
  facet normal 0 0.919516 0.393051
    outer loop
      vertex -50 -3.74494 -23.4055
      vertex 50 -3.60388 -23.7355
      vertex -50 -3.60388 -23.7355
    endloop
  endfacet
  facet normal 0 0.834533 -0.550959
    outer loop
      vertex 50 -3.4338 -19.9484
      vertex -50 -3.23607 -19.6489
      vertex 50 -3.23607 -19.6489
    endloop
  endfacet
  facet normal 0 0.834533 -0.550959
    outer loop
      vertex -50 -3.23607 -19.6489
      vertex 50 -3.4338 -19.9484
      vertex -50 -3.4338 -19.9484
    endloop
  endfacet
  facet normal 0 -0.919516 -0.393051
    outer loop
      vertex -50 3.74494 -20.5945
      vertex 50 3.60388 -20.2645
      vertex -50 3.60388 -20.2645
    endloop
  endfacet
  facet normal 0 -0.919516 -0.393051
    outer loop
      vertex 50 3.60388 -20.2645
      vertex -50 3.74494 -20.5945
      vertex 50 3.74494 -20.5945
    endloop
  endfacet
  facet normal 0 -0.512913 0.85844
    outer loop
      vertex -50 2.20359 -25.3383
      vertex 50 1.89547 -25.5224
      vertex 50 2.20359 -25.3383
    endloop
  endfacet
  facet normal 0 -0.512913 0.85844
    outer loop
      vertex 50 1.89547 -25.5224
      vertex -50 2.20359 -25.3383
      vertex -50 1.89547 -25.5224
    endloop
  endfacet
  facet normal 0 -0.919516 0.393051
    outer loop
      vertex -50 3.60388 -23.7355
      vertex 50 3.74494 -23.4055
      vertex -50 3.74494 -23.4055
    endloop
  endfacet
  facet normal 0 -0.919516 0.393051
    outer loop
      vertex 50 3.74494 -23.4055
      vertex -50 3.60388 -23.7355
      vertex 50 3.60388 -23.7355
    endloop
  endfacet
  facet normal 0 0.974923 -0.222541
    outer loop
      vertex 50 -3.93572 -21.2858
      vertex -50 -3.85585 -20.9359
      vertex 50 -3.85585 -20.9359
    endloop
  endfacet
  facet normal 0 0.974923 -0.222541
    outer loop
      vertex -50 -3.85585 -20.9359
      vertex 50 -3.93572 -21.2858
      vertex -50 -3.93572 -21.2858
    endloop
  endfacet
  facet normal 0 0.722756 -0.691104
    outer loop
      vertex 50 -3.01229 -19.3682
      vertex -50 -2.76425 -19.1088
      vertex 50 -2.76425 -19.1088
    endloop
  endfacet
  facet normal 0 0.722756 -0.691104
    outer loop
      vertex -50 -2.76425 -19.1088
      vertex 50 -3.01229 -19.3682
      vertex -50 -3.01229 -19.3682
    endloop
  endfacet
  facet normal 0 -0.951071 -0.308973
    outer loop
      vertex -50 3.85585 -20.9359
      vertex 50 3.74494 -20.5945
      vertex -50 3.74494 -20.5945
    endloop
  endfacet
  facet normal 0 -0.951071 -0.308973
    outer loop
      vertex 50 3.74494 -20.5945
      vertex -50 3.85585 -20.9359
      vertex 50 3.85585 -20.9359
    endloop
  endfacet
  facet normal 0 0.998994 0.0448516
    outer loop
      vertex 50 -3.9839 -22.3586
      vertex -50 -4 -22
      vertex 50 -4 -22
    endloop
  endfacet
  facet normal 0 0.998994 0.0448516
    outer loop
      vertex -50 -4 -22
      vertex 50 -3.9839 -22.3586
      vertex -50 -3.9839 -22.3586
    endloop
  endfacet
  facet normal 0 0.433812 -0.901003
    outer loop
      vertex -50 -1.89548 -18.4776
      vertex 50 -1.5721 -18.3219
      vertex 50 -1.89548 -18.4776
    endloop
  endfacet
  facet normal 0 0.433812 -0.901003
    outer loop
      vertex 50 -1.5721 -18.3219
      vertex -50 -1.89548 -18.4776
      vertex -50 -1.5721 -18.3219
    endloop
  endfacet
  facet normal 0 -0.266072 -0.963953
    outer loop
      vertex -50 0.890083 -18.1003
      vertex 50 1.23607 -18.1958
      vertex 50 0.890083 -18.1003
    endloop
  endfacet
  facet normal -0 -0.266072 -0.963953
    outer loop
      vertex 50 1.23607 -18.1958
      vertex -50 0.890083 -18.1003
      vertex -50 1.23607 -18.1958
    endloop
  endfacet
  facet normal 0 -0.998994 0.0448516
    outer loop
      vertex -50 3.9839 -22.3586
      vertex 50 4 -22
      vertex -50 4 -22
    endloop
  endfacet
  facet normal 0 -0.998994 0.0448516
    outer loop
      vertex 50 4 -22
      vertex -50 3.9839 -22.3586
      vertex 50 3.9839 -22.3586
    endloop
  endfacet
  facet normal 0 -0.0897133 0.995968
    outer loop
      vertex -50 0.536933 -25.9638
      vertex 50 0.179459 -25.996
      vertex 50 0.536933 -25.9638
    endloop
  endfacet
  facet normal 0 -0.0897133 0.995968
    outer loop
      vertex 50 0.179459 -25.996
      vertex -50 0.536933 -25.9638
      vertex -50 0.179459 -25.996
    endloop
  endfacet
  facet normal 0 -0.880608 -0.473846
    outer loop
      vertex -50 3.60388 -20.2645
      vertex 50 3.43379 -19.9484
      vertex -50 3.43379 -19.9484
    endloop
  endfacet
  facet normal 0 -0.880608 -0.473846
    outer loop
      vertex 50 3.43379 -19.9484
      vertex -50 3.60388 -20.2645
      vertex 50 3.60388 -20.2645
    endloop
  endfacet
  facet normal 0 -0.178591 0.983923
    outer loop
      vertex -50 0.890083 -25.8997
      vertex 50 0.536933 -25.9638
      vertex 50 0.890083 -25.8997
    endloop
  endfacet
  facet normal 0 -0.178591 0.983923
    outer loop
      vertex 50 0.536933 -25.9638
      vertex -50 0.890083 -25.8997
      vertex -50 0.536933 -25.9638
    endloop
  endfacet
  facet normal 0 0.88062 -0.473824
    outer loop
      vertex 50 -3.60388 -20.2645
      vertex -50 -3.4338 -19.9484
      vertex 50 -3.4338 -19.9484
    endloop
  endfacet
  facet normal 0 0.88062 -0.473824
    outer loop
      vertex -50 -3.4338 -19.9484
      vertex 50 -3.60388 -20.2645
      vertex -50 -3.60388 -20.2645
    endloop
  endfacet
  facet normal -0 0.266073 0.963953
    outer loop
      vertex -50 -0.890084 -25.8997
      vertex 50 -1.23607 -25.8042
      vertex 50 -0.890084 -25.8997
    endloop
  endfacet
  facet normal 0 0.266073 0.963953
    outer loop
      vertex 50 -1.23607 -25.8042
      vertex -50 -0.890084 -25.8997
      vertex -50 -1.23607 -25.8042
    endloop
  endfacet
  facet normal 0 -0.990946 -0.134263
    outer loop
      vertex -50 3.9839 -21.6414
      vertex 50 3.93572 -21.2858
      vertex -50 3.93572 -21.2858
    endloop
  endfacet
  facet normal 0 -0.990946 -0.134263
    outer loop
      vertex 50 3.93572 -21.2858
      vertex -50 3.9839 -21.6414
      vertex 50 3.9839 -21.6414
    endloop
  endfacet
  facet normal 0 -0.951071 0.308973
    outer loop
      vertex -50 3.74494 -23.4055
      vertex 50 3.85585 -23.0641
      vertex -50 3.85585 -23.0641
    endloop
  endfacet
  facet normal 0 -0.951071 0.308973
    outer loop
      vertex 50 3.85585 -23.0641
      vertex -50 3.74494 -23.4055
      vertex 50 3.74494 -23.4055
    endloop
  endfacet
  facet normal 0 -0.35134 0.936248
    outer loop
      vertex -50 1.5721 -25.6781
      vertex 50 1.23607 -25.8042
      vertex 50 1.5721 -25.6781
    endloop
  endfacet
  facet normal 0 -0.35134 0.936248
    outer loop
      vertex 50 1.23607 -25.8042
      vertex -50 1.5721 -25.6781
      vertex -50 1.23607 -25.8042
    endloop
  endfacet
  facet normal 0 0.781928 0.623369
    outer loop
      vertex 50 -3.01229 -24.6318
      vertex -50 -3.23607 -24.3511
      vertex 50 -3.23607 -24.3511
    endloop
  endfacet
  facet normal 0 0.781928 0.623369
    outer loop
      vertex -50 -3.23607 -24.3511
      vertex 50 -3.01229 -24.6318
      vertex -50 -3.01229 -24.6318
    endloop
  endfacet
  facet normal 0 -0.512913 -0.85844
    outer loop
      vertex -50 1.89547 -18.4776
      vertex 50 2.20359 -18.6617
      vertex 50 1.89547 -18.4776
    endloop
  endfacet
  facet normal -0 -0.512913 -0.85844
    outer loop
      vertex 50 2.20359 -18.6617
      vertex -50 1.89547 -18.4776
      vertex -50 2.20359 -18.6617
    endloop
  endfacet
  facet normal -0 0.35134 0.936248
    outer loop
      vertex -50 -1.23607 -25.8042
      vertex 50 -1.5721 -25.6781
      vertex 50 -1.23607 -25.8042
    endloop
  endfacet
  facet normal 0 0.35134 0.936248
    outer loop
      vertex 50 -1.5721 -25.6781
      vertex -50 -1.23607 -25.8042
      vertex -50 -1.5721 -25.6781
    endloop
  endfacet
  facet normal 0 -0.834545 0.550939
    outer loop
      vertex -50 3.23607 -24.3511
      vertex 50 3.43379 -24.0516
      vertex -50 3.43379 -24.0516
    endloop
  endfacet
  facet normal 0 -0.834545 0.550939
    outer loop
      vertex 50 3.43379 -24.0516
      vertex -50 3.23607 -24.3511
      vertex 50 3.23607 -24.3511
    endloop
  endfacet
  facet normal -0 0.657867 0.753134
    outer loop
      vertex -50 -2.49396 -25.1273
      vertex 50 -2.76425 -24.8912
      vertex 50 -2.49396 -25.1273
    endloop
  endfacet
  facet normal 0 0.657867 0.753134
    outer loop
      vertex 50 -2.76425 -24.8912
      vertex -50 -2.49396 -25.1273
      vertex -50 -2.76425 -24.8912
    endloop
  endfacet
  facet normal -0 0.0897133 0.995968
    outer loop
      vertex -50 -0.17946 -25.996
      vertex 50 -0.536934 -25.9638
      vertex 50 -0.17946 -25.996
    endloop
  endfacet
  facet normal 0 0.0897133 0.995968
    outer loop
      vertex 50 -0.536934 -25.9638
      vertex -50 -0.17946 -25.996
      vertex -50 -0.536934 -25.9638
    endloop
  endfacet
  facet normal 0 -0.266072 0.963953
    outer loop
      vertex -50 1.23607 -25.8042
      vertex 50 0.890083 -25.8997
      vertex 50 1.23607 -25.8042
    endloop
  endfacet
  facet normal 0 -0.266072 0.963953
    outer loop
      vertex 50 0.890083 -25.8997
      vertex -50 1.23607 -25.8042
      vertex -50 0.890083 -25.8997
    endloop
  endfacet
  facet normal 0 -0.834545 -0.550939
    outer loop
      vertex -50 3.43379 -19.9484
      vertex 50 3.23607 -19.6489
      vertex -50 3.23607 -19.6489
    endloop
  endfacet
  facet normal 0 -0.834545 -0.550939
    outer loop
      vertex 50 3.23607 -19.6489
      vertex -50 3.43379 -19.9484
      vertex 50 3.43379 -19.9484
    endloop
  endfacet
  facet normal 0 -0.990946 0.134263
    outer loop
      vertex -50 3.93572 -22.7142
      vertex 50 3.9839 -22.3586
      vertex -50 3.9839 -22.3586
    endloop
  endfacet
  facet normal 0 -0.990946 0.134263
    outer loop
      vertex 50 3.9839 -22.3586
      vertex -50 3.93572 -22.7142
      vertex 50 3.93572 -22.7142
    endloop
  endfacet
  facet normal 0 -0.722756 0.691104
    outer loop
      vertex -50 2.76425 -24.8912
      vertex 50 3.01229 -24.6318
      vertex -50 3.01229 -24.6318
    endloop
  endfacet
  facet normal 0 -0.722756 0.691104
    outer loop
      vertex 50 3.01229 -24.6318
      vertex -50 2.76425 -24.8912
      vertex 50 2.76425 -24.8912
    endloop
  endfacet
  facet normal 0 0.35134 -0.936248
    outer loop
      vertex -50 -1.5721 -18.3219
      vertex 50 -1.23607 -18.1958
      vertex 50 -1.5721 -18.3219
    endloop
  endfacet
  facet normal 0 0.35134 -0.936248
    outer loop
      vertex 50 -1.23607 -18.1958
      vertex -50 -1.5721 -18.3219
      vertex -50 -1.23607 -18.1958
    endloop
  endfacet
  facet normal 0 -0.880608 0.473846
    outer loop
      vertex -50 3.43379 -24.0516
      vertex 50 3.60388 -23.7355
      vertex -50 3.60388 -23.7355
    endloop
  endfacet
  facet normal 0 -0.880608 0.473846
    outer loop
      vertex 50 3.60388 -23.7355
      vertex -50 3.43379 -24.0516
      vertex 50 3.43379 -24.0516
    endloop
  endfacet
  facet normal 0 0.974923 0.222541
    outer loop
      vertex 50 -3.85585 -23.0641
      vertex -50 -3.93572 -22.7142
      vertex 50 -3.93572 -22.7142
    endloop
  endfacet
  facet normal 0 0.974923 0.222541
    outer loop
      vertex -50 -3.93572 -22.7142
      vertex 50 -3.85585 -23.0641
      vertex -50 -3.85585 -23.0641
    endloop
  endfacet
  facet normal 0 0.178591 -0.983923
    outer loop
      vertex -50 -0.890084 -18.1003
      vertex 50 -0.536934 -18.0362
      vertex 50 -0.890084 -18.1003
    endloop
  endfacet
  facet normal 0 0.178591 -0.983923
    outer loop
      vertex 50 -0.536934 -18.0362
      vertex -50 -0.890084 -18.1003
      vertex -50 -0.536934 -18.0362
    endloop
  endfacet
  facet normal 0 0.722756 0.691104
    outer loop
      vertex 50 -2.76425 -24.8912
      vertex -50 -3.01229 -24.6318
      vertex 50 -3.01229 -24.6318
    endloop
  endfacet
  facet normal 0 0.722756 0.691104
    outer loop
      vertex -50 -3.01229 -24.6318
      vertex 50 -2.76425 -24.8912
      vertex -50 -2.76425 -24.8912
    endloop
  endfacet
  facet normal 0 -0.0897133 -0.995968
    outer loop
      vertex -50 0.179459 -18.004
      vertex 50 0.536933 -18.0362
      vertex 50 0.179459 -18.004
    endloop
  endfacet
  facet normal -0 -0.0897133 -0.995968
    outer loop
      vertex 50 0.536933 -18.0362
      vertex -50 0.179459 -18.004
      vertex -50 0.536933 -18.0362
    endloop
  endfacet
  facet normal 0 0.88062 0.473824
    outer loop
      vertex 50 -3.4338 -24.0516
      vertex -50 -3.60388 -23.7355
      vertex 50 -3.60388 -23.7355
    endloop
  endfacet
  facet normal 0 0.88062 0.473824
    outer loop
      vertex -50 -3.60388 -23.7355
      vertex 50 -3.4338 -24.0516
      vertex -50 -3.4338 -24.0516
    endloop
  endfacet
  facet normal 0 -0.974923 0.222541
    outer loop
      vertex -50 3.85585 -23.0641
      vertex 50 3.93572 -22.7142
      vertex -50 3.93572 -22.7142
    endloop
  endfacet
  facet normal 0 -0.974923 0.222541
    outer loop
      vertex 50 3.93572 -22.7142
      vertex -50 3.85585 -23.0641
      vertex 50 3.85585 -23.0641
    endloop
  endfacet
  facet normal 0 0.781928 -0.623369
    outer loop
      vertex 50 -3.23607 -19.6489
      vertex -50 -3.01229 -19.3682
      vertex 50 -3.01229 -19.3682
    endloop
  endfacet
  facet normal 0 0.781928 -0.623369
    outer loop
      vertex -50 -3.01229 -19.3682
      vertex 50 -3.23607 -19.6489
      vertex -50 -3.23607 -19.6489
    endloop
  endfacet
  facet normal 0 0.990946 0.134263
    outer loop
      vertex 50 -3.93572 -22.7142
      vertex -50 -3.9839 -22.3586
      vertex 50 -3.9839 -22.3586
    endloop
  endfacet
  facet normal 0 0.990946 0.134263
    outer loop
      vertex -50 -3.9839 -22.3586
      vertex 50 -3.93572 -22.7142
      vertex -50 -3.93572 -22.7142
    endloop
  endfacet
  facet normal 0 0.951071 0.308973
    outer loop
      vertex 50 -3.74494 -23.4055
      vertex -50 -3.85585 -23.0641
      vertex 50 -3.85585 -23.0641
    endloop
  endfacet
  facet normal 0 0.951071 0.308973
    outer loop
      vertex -50 -3.85585 -23.0641
      vertex 50 -3.74494 -23.4055
      vertex -50 -3.74494 -23.4055
    endloop
  endfacet
  facet normal 0 0.990946 -0.134263
    outer loop
      vertex 50 -3.9839 -21.6414
      vertex -50 -3.93572 -21.2858
      vertex 50 -3.93572 -21.2858
    endloop
  endfacet
  facet normal 0 0.990946 -0.134263
    outer loop
      vertex -50 -3.93572 -21.2858
      vertex 50 -3.9839 -21.6414
      vertex -50 -3.9839 -21.6414
    endloop
  endfacet
  facet normal -0 0 1
    outer loop
      vertex -50 0.179459 -25.996
      vertex 50 -0.17946 -25.996
      vertex 50 0.179459 -25.996
    endloop
  endfacet
  facet normal 0 0 1
    outer loop
      vertex 50 -0.17946 -25.996
      vertex -50 0.179459 -25.996
      vertex -50 -0.17946 -25.996
    endloop
  endfacet
  facet normal 0 0 -1
    outer loop
      vertex -50 -0.17946 -18.004
      vertex 50 0.179459 -18.004
      vertex 50 -0.17946 -18.004
    endloop
  endfacet
  facet normal -0 0 -1
    outer loop
      vertex 50 0.179459 -18.004
      vertex -50 -0.17946 -18.004
      vertex -50 0.179459 -18.004
    endloop
  endfacet
  facet normal -0 0.178591 0.983923
    outer loop
      vertex -50 -0.536934 -25.9638
      vertex 50 -0.890084 -25.8997
      vertex 50 -0.536934 -25.9638
    endloop
  endfacet
  facet normal 0 0.178591 0.983923
    outer loop
      vertex 50 -0.890084 -25.8997
      vertex -50 -0.536934 -25.9638
      vertex -50 -0.890084 -25.8997
    endloop
  endfacet
  facet normal 0 0.951071 -0.308973
    outer loop
      vertex 50 -3.85585 -20.9359
      vertex -50 -3.74494 -20.5945
      vertex 50 -3.74494 -20.5945
    endloop
  endfacet
  facet normal 0 0.951071 -0.308973
    outer loop
      vertex -50 -3.74494 -20.5945
      vertex 50 -3.85585 -20.9359
      vertex -50 -3.85585 -20.9359
    endloop
  endfacet
  facet normal 0 -0.657867 -0.753134
    outer loop
      vertex -50 2.49396 -18.8727
      vertex 50 2.76425 -19.1088
      vertex 50 2.49396 -18.8727
    endloop
  endfacet
  facet normal -0 -0.657867 -0.753134
    outer loop
      vertex 50 2.76425 -19.1088
      vertex -50 2.49396 -18.8727
      vertex -50 2.76425 -19.1088
    endloop
  endfacet
  facet normal 0 0.0897133 -0.995968
    outer loop
      vertex -50 -0.536934 -18.0362
      vertex 50 -0.17946 -18.004
      vertex 50 -0.536934 -18.0362
    endloop
  endfacet
  facet normal 0 0.0897133 -0.995968
    outer loop
      vertex 50 -0.17946 -18.004
      vertex -50 -0.536934 -18.0362
      vertex -50 -0.17946 -18.004
    endloop
  endfacet
  facet normal 0 0.834533 0.550959
    outer loop
      vertex 50 -3.23607 -24.3511
      vertex -50 -3.4338 -24.0516
      vertex 50 -3.4338 -24.0516
    endloop
  endfacet
  facet normal 0 0.834533 0.550959
    outer loop
      vertex -50 -3.4338 -24.0516
      vertex 50 -3.23607 -24.3511
      vertex -50 -3.23607 -24.3511
    endloop
  endfacet
  facet normal 0 -0.178591 -0.983923
    outer loop
      vertex -50 0.536933 -18.0362
      vertex 50 0.890083 -18.1003
      vertex 50 0.536933 -18.0362
    endloop
  endfacet
  facet normal -0 -0.178591 -0.983923
    outer loop
      vertex 50 0.890083 -18.1003
      vertex -50 0.536933 -18.0362
      vertex -50 0.890083 -18.1003
    endloop
  endfacet
  facet normal 0 -0.722756 -0.691104
    outer loop
      vertex -50 3.01229 -19.3682
      vertex 50 2.76425 -19.1088
      vertex -50 2.76425 -19.1088
    endloop
  endfacet
  facet normal 0 -0.722756 -0.691104
    outer loop
      vertex 50 2.76425 -19.1088
      vertex -50 3.01229 -19.3682
      vertex 50 3.01229 -19.3682
    endloop
  endfacet
  facet normal 0 0.512926 -0.858433
    outer loop
      vertex -50 -2.20359 -18.6617
      vertex 50 -1.89548 -18.4776
      vertex 50 -2.20359 -18.6617
    endloop
  endfacet
  facet normal 0 0.512926 -0.858433
    outer loop
      vertex 50 -1.89548 -18.4776
      vertex -50 -2.20359 -18.6617
      vertex -50 -1.89548 -18.4776
    endloop
  endfacet
  facet normal 0 -0.657867 0.753134
    outer loop
      vertex -50 2.76425 -24.8912
      vertex 50 2.49396 -25.1273
      vertex 50 2.76425 -24.8912
    endloop
  endfacet
  facet normal 0 -0.657867 0.753134
    outer loop
      vertex 50 2.49396 -25.1273
      vertex -50 2.76425 -24.8912
      vertex -50 2.49396 -25.1273
    endloop
  endfacet
  facet normal 0 -0.587847 -0.808972
    outer loop
      vertex -50 2.20359 -18.6617
      vertex 50 2.49396 -18.8727
      vertex 50 2.20359 -18.6617
    endloop
  endfacet
  facet normal -0 -0.587847 -0.808972
    outer loop
      vertex 50 2.49396 -18.8727
      vertex -50 2.20359 -18.6617
      vertex -50 2.49396 -18.8727
    endloop
  endfacet
  facet normal 0 0.998994 -0.0448516
    outer loop
      vertex 50 -4 -22
      vertex -50 -3.9839 -21.6414
      vertex 50 -3.9839 -21.6414
    endloop
  endfacet
  facet normal 0 0.998994 -0.0448516
    outer loop
      vertex -50 -3.9839 -21.6414
      vertex 50 -4 -22
      vertex -50 -4 -22
    endloop
  endfacet
  facet normal 0 -0.781928 0.623369
    outer loop
      vertex -50 3.01229 -24.6318
      vertex 50 3.23607 -24.3511
      vertex -50 3.23607 -24.3511
    endloop
  endfacet
  facet normal 0 -0.781928 0.623369
    outer loop
      vertex 50 3.23607 -24.3511
      vertex -50 3.01229 -24.6318
      vertex 50 3.01229 -24.6318
    endloop
  endfacet
  facet normal -0 0.433812 0.901003
    outer loop
      vertex -50 -1.5721 -25.6781
      vertex 50 -1.89548 -25.5224
      vertex 50 -1.5721 -25.6781
    endloop
  endfacet
  facet normal 0 0.433812 0.901003
    outer loop
      vertex 50 -1.89548 -25.5224
      vertex -50 -1.5721 -25.6781
      vertex -50 -1.89548 -25.5224
    endloop
  endfacet
  facet normal 0 0.657867 -0.753134
    outer loop
      vertex -50 -2.76425 -19.1088
      vertex 50 -2.49396 -18.8727
      vertex 50 -2.76425 -19.1088
    endloop
  endfacet
  facet normal 0 0.657867 -0.753134
    outer loop
      vertex 50 -2.49396 -18.8727
      vertex -50 -2.76425 -19.1088
      vertex -50 -2.49396 -18.8727
    endloop
  endfacet
  facet normal -0 0.587847 0.808972
    outer loop
      vertex -50 -2.20359 -25.3383
      vertex 50 -2.49396 -25.1273
      vertex 50 -2.20359 -25.3383
    endloop
  endfacet
  facet normal 0 0.587847 0.808972
    outer loop
      vertex 50 -2.49396 -25.1273
      vertex -50 -2.20359 -25.3383
      vertex -50 -2.49396 -25.1273
    endloop
  endfacet
  facet normal 0 -0.587847 0.808972
    outer loop
      vertex -50 2.49396 -25.1273
      vertex 50 2.20359 -25.3383
      vertex 50 2.49396 -25.1273
    endloop
  endfacet
  facet normal 0 -0.587847 0.808972
    outer loop
      vertex 50 2.20359 -25.3383
      vertex -50 2.49396 -25.1273
      vertex -50 2.20359 -25.3383
    endloop
  endfacet
endsolid OpenSCAD_Model
